<svg xmlns="http://www.w3.org/2000/svg" xmlns:xlink="http://www.w3.org/1999/xlink" width="177" zoomAndPan="magnify" viewBox="0 0 132.75 45.749998" height="61" preserveAspectRatio="xMidYMid meet" version="1.0"><defs><g/><clipPath id="580e798834"><path d="M 0.238281 0 L 131.671875 0 L 131.671875 44.804688 L 0.238281 44.804688 Z M 0.238281 0 " clip-rule="nonzero"/></clipPath><clipPath id="876a1176d7"><path d="M 112.46875 0 L 18 0 C 8.1875 0 0.238281 7.769531 0.238281 17.390625 C 0.238281 24.359375 4.40625 30.34375 10.429688 33.121094 L 10.429688 44.804688 L 22.492188 34.773438 L 112.46875 34.773438 C 123.648438 34.773438 131.601562 27.003906 131.601562 17.390625 C 131.601562 7.769531 123.648438 0 112.46875 0 Z M 112.46875 0 " clip-rule="nonzero"/></clipPath></defs><g clip-path="url(#580e798834)"><g clip-path="url(#876a1176d7)"><path fill="#f7931a" d="M 0.238281 0 L 131.671875 0 L 131.671875 44.804688 L 0.238281 44.804688 Z M 0.238281 0 " fill-opacity="1" fill-rule="nonzero"/></g></g><path fill="#f7931a" d="M 35.976562 21.828125 C 33.8125 30.523438 25.003906 35.8125 16.308594 33.644531 C 7.617188 31.476562 2.328125 22.671875 4.496094 13.976562 C 6.664062 5.28125 15.46875 -0.0078125 24.160156 2.160156 C 32.855469 4.328125 38.144531 13.132812 35.976562 21.828125 Z M 35.976562 21.828125 " fill-opacity="1" fill-rule="nonzero"/><path fill="#ffffff" d="M 27.390625 15.589844 C 27.714844 13.429688 26.070312 12.269531 23.824219 11.496094 L 24.550781 8.570312 L 22.773438 8.125 L 22.0625 10.972656 C 21.59375 10.859375 21.113281 10.746094 20.636719 10.640625 L 21.351562 7.773438 L 19.570312 7.328125 L 18.839844 10.253906 C 18.453125 10.164062 18.074219 10.078125 17.703125 9.984375 L 17.707031 9.976562 L 15.25 9.363281 L 14.777344 11.265625 C 14.777344 11.265625 16.097656 11.566406 16.070312 11.585938 C 16.792969 11.765625 16.921875 12.242188 16.898438 12.621094 L 16.070312 15.953125 C 16.117188 15.96875 16.183594 15.984375 16.253906 16.011719 C 16.195312 16 16.132812 15.984375 16.066406 15.96875 L 14.902344 20.636719 C 14.8125 20.855469 14.589844 21.183594 14.085938 21.058594 C 14.101562 21.085938 12.792969 20.734375 12.792969 20.734375 L 11.90625 22.773438 L 14.222656 23.351562 C 14.65625 23.457031 15.078125 23.570312 15.492188 23.679688 L 14.757812 26.636719 L 16.535156 27.082031 L 17.265625 24.152344 C 17.75 24.285156 18.222656 24.40625 18.683594 24.523438 L 17.957031 27.433594 L 19.738281 27.878906 L 20.472656 24.925781 C 23.511719 25.5 25.792969 25.269531 26.753906 22.523438 C 27.53125 20.3125 26.714844 19.035156 25.117188 18.203125 C 26.28125 17.9375 27.160156 17.171875 27.390625 15.589844 Z M 23.324219 21.296875 C 22.773438 23.507812 19.050781 22.3125 17.84375 22.011719 L 18.820312 18.089844 C 20.027344 18.394531 23.898438 18.988281 23.324219 21.296875 Z M 23.875 15.558594 C 23.371094 17.570312 20.273438 16.546875 19.269531 16.296875 L 20.15625 12.742188 C 21.160156 12.992188 24.398438 13.460938 23.875 15.558594 Z M 23.875 15.558594 " fill-opacity="1" fill-rule="nonzero"/><g fill="#ffffff" fill-opacity="1"><g transform="translate(29.189739, 22.110128)"><g><path d="M 5.09375 0.234375 C 4.050781 0.234375 3.191406 0.0351562 2.515625 -0.359375 C 1.847656 -0.765625 1.351562 -1.328125 1.03125 -2.046875 C 0.707031 -2.765625 0.546875 -3.585938 0.546875 -4.515625 L 0.546875 -5.171875 C 0.546875 -6.117188 0.707031 -6.945312 1.03125 -7.65625 C 1.351562 -8.375 1.847656 -8.929688 2.515625 -9.328125 C 3.191406 -9.734375 4.050781 -9.9375 5.09375 -9.9375 C 6.132812 -9.9375 6.988281 -9.734375 7.65625 -9.328125 C 8.320312 -8.929688 8.816406 -8.375 9.140625 -7.65625 C 9.460938 -6.945312 9.625 -6.117188 9.625 -5.171875 L 9.625 -4.515625 C 9.625 -3.585938 9.460938 -2.765625 9.140625 -2.046875 C 8.816406 -1.328125 8.320312 -0.765625 7.65625 -0.359375 C 6.988281 0.0351562 6.132812 0.234375 5.09375 0.234375 Z M 5.09375 -2.25 C 5.664062 -2.25 6.082031 -2.445312 6.34375 -2.84375 C 6.601562 -3.25 6.734375 -3.804688 6.734375 -4.515625 L 6.734375 -5.171875 C 6.734375 -5.890625 6.601562 -6.445312 6.34375 -6.84375 C 6.082031 -7.25 5.664062 -7.453125 5.09375 -7.453125 C 4.53125 -7.453125 4.113281 -7.25 3.84375 -6.84375 C 3.570312 -6.445312 3.4375 -5.890625 3.4375 -5.171875 L 3.4375 -4.515625 C 3.4375 -3.804688 3.570312 -3.25 3.84375 -2.84375 C 4.113281 -2.445312 4.53125 -2.25 5.09375 -2.25 Z M 5.09375 -2.25 "/></g></g></g><g fill="#ffffff" fill-opacity="1"><g transform="translate(39.35951, 22.110128)"><g><path d="M 5.09375 0.234375 C 4.050781 0.234375 3.191406 0.0351562 2.515625 -0.359375 C 1.847656 -0.765625 1.351562 -1.328125 1.03125 -2.046875 C 0.707031 -2.765625 0.546875 -3.585938 0.546875 -4.515625 L 0.546875 -5.171875 C 0.546875 -6.117188 0.707031 -6.945312 1.03125 -7.65625 C 1.351562 -8.375 1.847656 -8.929688 2.515625 -9.328125 C 3.191406 -9.734375 4.050781 -9.9375 5.09375 -9.9375 C 6.132812 -9.9375 6.988281 -9.734375 7.65625 -9.328125 C 8.320312 -8.929688 8.816406 -8.375 9.140625 -7.65625 C 9.460938 -6.945312 9.625 -6.117188 9.625 -5.171875 L 9.625 -4.515625 C 9.625 -3.585938 9.460938 -2.765625 9.140625 -2.046875 C 8.816406 -1.328125 8.320312 -0.765625 7.65625 -0.359375 C 6.988281 0.0351562 6.132812 0.234375 5.09375 0.234375 Z M 5.09375 -2.25 C 5.664062 -2.25 6.082031 -2.445312 6.34375 -2.84375 C 6.601562 -3.25 6.734375 -3.804688 6.734375 -4.515625 L 6.734375 -5.171875 C 6.734375 -5.890625 6.601562 -6.445312 6.34375 -6.84375 C 6.082031 -7.25 5.664062 -7.453125 5.09375 -7.453125 C 4.53125 -7.453125 4.113281 -7.25 3.84375 -6.84375 C 3.570312 -6.445312 3.4375 -5.890625 3.4375 -5.171875 L 3.4375 -4.515625 C 3.4375 -3.804688 3.570312 -3.25 3.84375 -2.84375 C 4.113281 -2.445312 4.53125 -2.25 5.09375 -2.25 Z M 5.09375 -2.25 "/></g></g></g><g fill="#ffffff" fill-opacity="1"><g transform="translate(49.529281, 22.110128)"><g><path d="M 4.828125 -1.953125 C 5.296875 -1.953125 5.628906 -2.039062 5.828125 -2.21875 C 6.023438 -2.40625 6.125 -2.632812 6.125 -2.90625 C 6.125 -3.207031 6.023438 -3.429688 5.828125 -3.578125 C 5.640625 -3.734375 5.257812 -3.832031 4.6875 -3.875 C 3.320312 -3.988281 2.320312 -4.242188 1.6875 -4.640625 C 1.0625 -5.035156 0.75 -5.691406 0.75 -6.609375 L 0.75 -6.765625 C 0.75 -7.515625 0.925781 -8.117188 1.28125 -8.578125 C 1.644531 -9.046875 2.132812 -9.390625 2.75 -9.609375 C 3.363281 -9.828125 4.054688 -9.9375 4.828125 -9.9375 C 6.253906 -9.9375 7.289062 -9.640625 7.9375 -9.046875 C 8.582031 -8.460938 8.90625 -7.648438 8.90625 -6.609375 L 8.90625 -6.515625 L 6.078125 -6.515625 C 6.078125 -6.898438 5.976562 -7.195312 5.78125 -7.40625 C 5.582031 -7.625 5.265625 -7.734375 4.828125 -7.734375 C 4.429688 -7.734375 4.128906 -7.65625 3.921875 -7.5 C 3.710938 -7.34375 3.609375 -7.128906 3.609375 -6.859375 C 3.609375 -6.566406 3.695312 -6.347656 3.875 -6.203125 C 4.0625 -6.066406 4.4375 -5.972656 5 -5.921875 C 5.8125 -5.867188 6.519531 -5.753906 7.125 -5.578125 C 7.726562 -5.410156 8.195312 -5.140625 8.53125 -4.765625 C 8.863281 -4.390625 9.03125 -3.863281 9.03125 -3.1875 L 9.03125 -3.015625 C 9.03125 -2.015625 8.679688 -1.222656 7.984375 -0.640625 C 7.285156 -0.0546875 6.234375 0.234375 4.828125 0.234375 C 3.410156 0.234375 2.359375 -0.0664062 1.671875 -0.671875 C 0.984375 -1.273438 0.640625 -2.046875 0.640625 -2.984375 L 0.640625 -3.078125 L 3.515625 -3.078125 C 3.515625 -2.753906 3.609375 -2.484375 3.796875 -2.265625 C 3.992188 -2.054688 4.335938 -1.953125 4.828125 -1.953125 Z M 4.828125 -1.953125 "/></g></g></g><g fill="#ffffff" fill-opacity="1"><g transform="translate(59.186906, 22.110128)"><g><path d="M 4.71875 -9.703125 L 7.203125 -9.703125 L 7.203125 -7.171875 L 4.71875 -7.171875 L 4.71875 -3.671875 C 4.71875 -3.078125 4.84375 -2.691406 5.09375 -2.515625 C 5.351562 -2.335938 5.703125 -2.25 6.140625 -2.25 C 6.304688 -2.25 6.484375 -2.265625 6.671875 -2.296875 C 6.859375 -2.328125 6.976562 -2.351562 7.03125 -2.375 L 7.03125 0 C 6.9375 0.0507812 6.757812 0.101562 6.5 0.15625 C 6.25 0.207031 5.90625 0.234375 5.46875 0.234375 C 4.738281 0.234375 4.101562 0.117188 3.5625 -0.109375 C 3.019531 -0.335938 2.59375 -0.710938 2.28125 -1.234375 C 1.976562 -1.765625 1.828125 -2.472656 1.828125 -3.359375 L 1.828125 -7.171875 L 0.34375 -7.171875 L 0.34375 -9.703125 L 1.828125 -9.703125 L 1.828125 -12.4375 L 4.71875 -12.4375 Z M 4.71875 -9.703125 "/></g></g></g><g fill="#ffffff" fill-opacity="1"><g transform="translate(67.070307, 22.110128)"><g><path d="M 6.734375 0 L 6.546875 -1 C 6.203125 -0.632812 5.78125 -0.335938 5.28125 -0.109375 C 4.78125 0.117188 4.191406 0.234375 3.515625 0.234375 C 2.796875 0.234375 2.210938 0.101562 1.765625 -0.15625 C 1.328125 -0.425781 1.015625 -0.785156 0.828125 -1.234375 C 0.640625 -1.679688 0.546875 -2.160156 0.546875 -2.671875 L 0.546875 -2.859375 C 0.546875 -3.566406 0.695312 -4.125 1 -4.53125 C 1.300781 -4.945312 1.710938 -5.265625 2.234375 -5.484375 C 2.753906 -5.703125 3.351562 -5.863281 4.03125 -5.96875 L 6.25 -6.3125 C 6.238281 -6.789062 6.140625 -7.144531 5.953125 -7.375 C 5.773438 -7.613281 5.4375 -7.734375 4.9375 -7.734375 C 4.414062 -7.734375 4.066406 -7.601562 3.890625 -7.34375 C 3.722656 -7.09375 3.640625 -6.8125 3.640625 -6.5 L 0.921875 -6.5 L 0.921875 -6.65625 C 0.921875 -7.21875 1.039062 -7.75 1.28125 -8.25 C 1.519531 -8.75 1.9375 -9.15625 2.53125 -9.46875 C 3.132812 -9.78125 3.96875 -9.9375 5.03125 -9.9375 C 6.09375 -9.9375 6.921875 -9.789062 7.515625 -9.5 C 8.117188 -9.207031 8.539062 -8.785156 8.78125 -8.234375 C 9.03125 -7.679688 9.15625 -7.015625 9.15625 -6.234375 L 9.15625 -2.75 L 9.328125 0 Z M 4.578125 -2.109375 C 4.992188 -2.109375 5.335938 -2.1875 5.609375 -2.34375 C 5.878906 -2.507812 6.09375 -2.675781 6.25 -2.84375 L 6.25 -4.609375 L 4.609375 -4.359375 C 4.160156 -4.285156 3.847656 -4.144531 3.671875 -3.9375 C 3.503906 -3.738281 3.421875 -3.492188 3.421875 -3.203125 L 3.421875 -3.09375 C 3.421875 -2.84375 3.507812 -2.613281 3.6875 -2.40625 C 3.863281 -2.207031 4.160156 -2.109375 4.578125 -2.109375 Z M 4.578125 -2.109375 "/></g></g></g><g fill="#ffffff" fill-opacity="1"><g transform="translate(77.112038, 22.110128)"><g><path d="M 6.640625 -0.203125 L 6.640625 -1.328125 C 6.367188 -1.023438 6.03125 -0.785156 5.625 -0.609375 C 5.21875 -0.429688 4.726562 -0.34375 4.15625 -0.34375 C 2.863281 -0.34375 1.9375 -0.753906 1.375 -1.578125 C 0.820312 -2.398438 0.546875 -3.503906 0.546875 -4.890625 L 0.546875 -5.390625 C 0.546875 -6.265625 0.664062 -7.039062 0.90625 -7.71875 C 1.15625 -8.40625 1.546875 -8.945312 2.078125 -9.34375 C 2.609375 -9.738281 3.300781 -9.9375 4.15625 -9.9375 C 4.832031 -9.9375 5.394531 -9.804688 5.84375 -9.546875 C 6.289062 -9.296875 6.648438 -8.972656 6.921875 -8.578125 L 7.125 -9.703125 L 9.703125 -9.703125 L 9.53125 -6.953125 L 9.53125 -0.1875 C 9.53125 1.144531 9.164062 2.15625 8.4375 2.84375 C 7.707031 3.539062 6.578125 3.890625 5.046875 3.890625 C 3.972656 3.890625 3.117188 3.734375 2.484375 3.421875 C 1.847656 3.117188 1.394531 2.695312 1.125 2.15625 C 0.863281 1.625 0.734375 1.035156 0.734375 0.390625 L 0.734375 0 L 3.453125 0 C 3.453125 0.445312 3.554688 0.816406 3.765625 1.109375 C 3.984375 1.410156 4.394531 1.5625 5 1.5625 C 5.5625 1.5625 5.972656 1.429688 6.234375 1.171875 C 6.503906 0.910156 6.640625 0.453125 6.640625 -0.203125 Z M 5 -2.84375 C 5.4375 -2.84375 5.789062 -2.953125 6.0625 -3.171875 C 6.34375 -3.390625 6.535156 -3.582031 6.640625 -3.75 L 6.640625 -6.53125 C 6.535156 -6.695312 6.34375 -6.890625 6.0625 -7.109375 C 5.789062 -7.335938 5.4375 -7.453125 5 -7.453125 C 4.46875 -7.453125 4.070312 -7.257812 3.8125 -6.875 C 3.5625 -6.5 3.4375 -6.003906 3.4375 -5.390625 L 3.4375 -4.890625 C 3.4375 -3.523438 3.957031 -2.84375 5 -2.84375 Z M 5 -2.84375 "/></g></g></g><g fill="#ffffff" fill-opacity="1"><g transform="translate(87.611043, 22.110128)"><g><path d="M 6.734375 0 L 6.546875 -1 C 6.203125 -0.632812 5.78125 -0.335938 5.28125 -0.109375 C 4.78125 0.117188 4.191406 0.234375 3.515625 0.234375 C 2.796875 0.234375 2.210938 0.101562 1.765625 -0.15625 C 1.328125 -0.425781 1.015625 -0.785156 0.828125 -1.234375 C 0.640625 -1.679688 0.546875 -2.160156 0.546875 -2.671875 L 0.546875 -2.859375 C 0.546875 -3.566406 0.695312 -4.125 1 -4.53125 C 1.300781 -4.945312 1.710938 -5.265625 2.234375 -5.484375 C 2.753906 -5.703125 3.351562 -5.863281 4.03125 -5.96875 L 6.25 -6.3125 C 6.238281 -6.789062 6.140625 -7.144531 5.953125 -7.375 C 5.773438 -7.613281 5.4375 -7.734375 4.9375 -7.734375 C 4.414062 -7.734375 4.066406 -7.601562 3.890625 -7.34375 C 3.722656 -7.09375 3.640625 -6.8125 3.640625 -6.5 L 0.921875 -6.5 L 0.921875 -6.65625 C 0.921875 -7.21875 1.039062 -7.75 1.28125 -8.25 C 1.519531 -8.75 1.9375 -9.15625 2.53125 -9.46875 C 3.132812 -9.78125 3.96875 -9.9375 5.03125 -9.9375 C 6.09375 -9.9375 6.921875 -9.789062 7.515625 -9.5 C 8.117188 -9.207031 8.539062 -8.785156 8.78125 -8.234375 C 9.03125 -7.679688 9.15625 -7.015625 9.15625 -6.234375 L 9.15625 -2.75 L 9.328125 0 Z M 4.578125 -2.109375 C 4.992188 -2.109375 5.335938 -2.1875 5.609375 -2.34375 C 5.878906 -2.507812 6.09375 -2.675781 6.25 -2.84375 L 6.25 -4.609375 L 4.609375 -4.359375 C 4.160156 -4.285156 3.847656 -4.144531 3.671875 -3.9375 C 3.503906 -3.738281 3.421875 -3.492188 3.421875 -3.203125 L 3.421875 -3.09375 C 3.421875 -2.84375 3.507812 -2.613281 3.6875 -2.40625 C 3.863281 -2.207031 4.160156 -2.109375 4.578125 -2.109375 Z M 4.578125 -2.109375 "/></g></g></g><g fill="#ffffff" fill-opacity="1"><g transform="translate(97.652774, 22.110128)"><g><path d="M 6.1875 -9.9375 C 6.226562 -9.9375 6.273438 -9.9375 6.328125 -9.9375 C 6.378906 -9.9375 6.421875 -9.929688 6.453125 -9.921875 L 6.453125 -7.140625 L 5.96875 -7.140625 C 5.382812 -7.140625 4.921875 -7.039062 4.578125 -6.84375 C 4.242188 -6.65625 4.007812 -6.472656 3.875 -6.296875 L 3.875 0 L 0.984375 0 L 0.984375 -6.953125 L 0.828125 -9.703125 L 3.40625 -9.703125 L 3.609375 -8.5625 C 3.890625 -8.96875 4.25 -9.296875 4.6875 -9.546875 C 5.125 -9.804688 5.625 -9.9375 6.1875 -9.9375 Z M 6.1875 -9.9375 "/></g></g></g><g fill="#ffffff" fill-opacity="1"><g transform="translate(104.694788, 22.110128)"><g><path d="M 14.90625 0 L 12.046875 0 L 12.046875 -6.21875 C 12.046875 -6.613281 11.953125 -6.914062 11.765625 -7.125 C 11.578125 -7.34375 11.285156 -7.453125 10.890625 -7.453125 C 10.472656 -7.453125 10.144531 -7.351562 9.90625 -7.15625 C 9.675781 -6.957031 9.503906 -6.773438 9.390625 -6.609375 L 9.390625 0 L 6.515625 0 L 6.515625 -6.21875 C 6.515625 -6.613281 6.421875 -6.914062 6.234375 -7.125 C 6.054688 -7.34375 5.765625 -7.453125 5.359375 -7.453125 C 4.953125 -7.453125 4.628906 -7.351562 4.390625 -7.15625 C 4.160156 -6.957031 3.988281 -6.773438 3.875 -6.609375 L 3.875 0 L 0.984375 0 L 0.984375 -6.953125 L 0.828125 -9.703125 L 3.40625 -9.703125 L 3.609375 -8.53125 C 3.898438 -8.945312 4.28125 -9.285156 4.75 -9.546875 C 5.226562 -9.804688 5.816406 -9.9375 6.515625 -9.9375 C 7.160156 -9.9375 7.691406 -9.800781 8.109375 -9.53125 C 8.535156 -9.257812 8.851562 -8.894531 9.0625 -8.4375 C 9.351562 -8.863281 9.738281 -9.21875 10.21875 -9.5 C 10.707031 -9.789062 11.316406 -9.9375 12.046875 -9.9375 C 12.710938 -9.9375 13.253906 -9.789062 13.671875 -9.5 C 14.097656 -9.21875 14.410156 -8.828125 14.609375 -8.328125 C 14.804688 -7.835938 14.90625 -7.285156 14.90625 -6.671875 Z M 14.90625 0 "/></g></g></g></svg>