<svg xmlns="http://www.w3.org/2000/svg" xmlns:xlink="http://www.w3.org/1999/xlink" width="412" zoomAndPan="magnify" viewBox="0 0 309 172.499995" height="230" preserveAspectRatio="xMidYMid meet" version="1.0"><defs><g/><clipPath id="808bbea3fb"><path d="M 9 9 L 294 9 L 294 167 L 9 167 Z M 9 9 " clip-rule="nonzero"/></clipPath><clipPath id="b987900d23"><path d="M 0.449219 74.070312 L 282.109375 0 L 307.835938 97.835938 L 26.175781 171.90625 Z M 0.449219 74.070312 " clip-rule="nonzero"/></clipPath><clipPath id="59b77b1b91"><path d="M 240.320312 10.988281 L 39.335938 63.84375 C 17.855469 69.492188 4.921875 91.078125 10.421875 112.003906 C 14.40625 127.148438 26.976562 137.847656 41.761719 140.460938 L 48.488281 166.039062 L 69.128906 137.132812 L 260.273438 86.863281 C 284.648438 80.453125 297.585938 58.867188 292.082031 37.933594 C 286.578125 17.007812 264.695312 4.578125 240.320312 10.988281 Z M 240.320312 10.988281 " clip-rule="nonzero"/></clipPath><clipPath id="8fbfea6932"><path d="M 17 65 L 92 65 L 92 139 L 17 139 Z M 17 65 " clip-rule="nonzero"/></clipPath><clipPath id="1e73dc0d19"><path d="M 5.042969 72.863281 L 83.152344 52.320312 L 103.695312 130.429688 L 25.582031 150.972656 Z M 5.042969 72.863281 " clip-rule="nonzero"/></clipPath><clipPath id="b778417a63"><path d="M 5.042969 72.863281 L 83.152344 52.320312 L 103.695312 130.429688 L 25.582031 150.972656 Z M 5.042969 72.863281 " clip-rule="nonzero"/></clipPath><clipPath id="fa02bc595e"><path d="M 38 78 L 72 78 L 72 124 L 38 124 Z M 38 78 " clip-rule="nonzero"/></clipPath><clipPath id="a9736d5848"><path d="M 5.042969 72.863281 L 83.152344 52.320312 L 103.695312 130.429688 L 25.582031 150.972656 Z M 5.042969 72.863281 " clip-rule="nonzero"/></clipPath><clipPath id="3609a868f8"><path d="M 5.042969 72.863281 L 83.152344 52.320312 L 103.695312 130.429688 L 25.582031 150.972656 Z M 5.042969 72.863281 " clip-rule="nonzero"/></clipPath></defs><g clip-path="url(#808bbea3fb)"><g clip-path="url(#b987900d23)"><g clip-path="url(#59b77b1b91)"><path fill="#ffffff" d="M 0.449219 74.070312 L 282.109375 0 L 307.835938 97.835938 L 26.175781 171.90625 Z M 0.449219 74.070312 " fill-opacity="1" fill-rule="nonzero"/></g></g></g><g clip-path="url(#8fbfea6932)"><g clip-path="url(#1e73dc0d19)"><g clip-path="url(#b778417a63)"><path fill="#ffffff" d="M 91.109375 101.226562 C 91.371094 121.472656 75.167969 138.097656 54.917969 138.355469 C 34.679688 138.613281 18.054688 122.410156 17.796875 102.167969 C 17.535156 81.917969 33.738281 65.292969 53.980469 65.035156 C 74.226562 64.777344 90.851562 80.980469 91.109375 101.226562 Z M 91.109375 101.226562 " fill-opacity="1" fill-rule="nonzero"/></g></g></g><g clip-path="url(#fa02bc595e)"><g clip-path="url(#a9736d5848)"><g clip-path="url(#3609a868f8)"><path fill="#f7931a" d="M 68.761719 92.53125 C 68.226562 87.625 63.964844 86.035156 58.609375 85.632812 L 58.519531 78.820312 L 54.375 78.875 L 54.460938 85.507812 C 53.371094 85.523438 52.253906 85.558594 51.148438 85.59375 L 51.0625 78.917969 L 46.921875 78.972656 L 47.003906 85.78125 C 46.109375 85.808594 45.226562 85.839844 44.367188 85.851562 L 44.367188 85.828125 L 38.648438 85.898438 L 38.707031 90.328125 C 38.707031 90.328125 41.765625 90.230469 41.714844 90.289062 C 43.394531 90.265625 43.957031 91.234375 44.125 92.074219 L 44.226562 99.835938 C 44.339844 99.832031 44.492188 99.835938 44.664062 99.859375 C 44.523438 99.859375 44.378906 99.859375 44.226562 99.863281 L 44.363281 110.734375 C 44.296875 111.265625 43.996094 112.109375 42.824219 112.128906 C 42.878906 112.175781 39.808594 112.164062 39.808594 112.164062 L 39.050781 117.128906 L 44.445312 117.058594 C 45.449219 117.046875 46.4375 117.050781 47.40625 117.046875 L 47.496094 123.933594 L 51.640625 123.882812 L 51.550781 117.066406 C 52.6875 117.074219 53.789062 117.070312 54.863281 117.054688 L 54.949219 123.839844 L 59.09375 123.785156 L 59.007812 116.910156 C 65.972656 116.417969 70.832031 114.601562 71.351562 108.046875 C 71.773438 102.769531 69.265625 100.449219 65.296875 99.550781 C 67.683594 98.296875 69.160156 96.121094 68.761719 92.53125 Z M 63.148438 107.335938 C 63.21875 112.484375 54.394531 112.011719 51.585938 112.050781 L 51.46875 102.921875 C 54.28125 102.886719 63.082031 101.964844 63.148438 107.335938 Z M 61.054688 94.484375 C 61.113281 99.167969 53.753906 98.714844 51.414062 98.746094 L 51.308594 90.464844 C 53.648438 90.4375 60.992188 89.597656 61.054688 94.484375 Z M 61.054688 94.484375 " fill-opacity="1" fill-rule="nonzero"/></g></g></g><g fill="#f7931a" fill-opacity="1"><g transform="translate(76.341839, 105.863457)"><g><path d="M 11.28125 -2.40625 C 9.007812 -1.8125 7.019531 -1.757812 5.3125 -2.25 C 3.613281 -2.75 2.203125 -3.691406 1.078125 -5.078125 C -0.0351562 -6.460938 -0.863281 -8.171875 -1.40625 -10.203125 L -1.78125 -11.640625 C -2.320312 -13.703125 -2.441406 -15.609375 -2.140625 -17.359375 C -1.847656 -19.109375 -1.082031 -20.613281 0.15625 -21.875 C 1.394531 -23.144531 3.148438 -24.078125 5.421875 -24.671875 C 7.710938 -25.273438 9.703125 -25.328125 11.390625 -24.828125 C 13.078125 -24.335938 14.476562 -23.40625 15.59375 -22.03125 C 16.707031 -20.65625 17.535156 -18.9375 18.078125 -16.875 L 18.453125 -15.4375 C 18.992188 -13.40625 19.117188 -11.507812 18.828125 -9.75 C 18.535156 -7.988281 17.773438 -6.472656 16.546875 -5.203125 C 15.328125 -3.941406 13.570312 -3.007812 11.28125 -2.40625 Z M 9.84375 -7.84375 C 11.101562 -8.175781 11.90625 -8.859375 12.25 -9.890625 C 12.59375 -10.929688 12.554688 -12.222656 12.140625 -13.765625 L 11.765625 -15.203125 C 11.347656 -16.785156 10.738281 -17.9375 9.9375 -18.65625 C 9.144531 -19.375 8.117188 -19.566406 6.859375 -19.234375 C 5.628906 -18.910156 4.832031 -18.238281 4.46875 -17.21875 C 4.101562 -16.195312 4.128906 -14.894531 4.546875 -13.3125 L 4.921875 -11.875 C 5.335938 -10.332031 5.953125 -9.191406 6.765625 -8.453125 C 7.585938 -7.722656 8.613281 -7.519531 9.84375 -7.84375 Z M 9.84375 -7.84375 "/></g></g></g><g fill="#f7931a" fill-opacity="1"><g transform="translate(98.606073, 100.008338)"><g><path d="M 11.28125 -2.40625 C 9.007812 -1.8125 7.019531 -1.757812 5.3125 -2.25 C 3.613281 -2.75 2.203125 -3.691406 1.078125 -5.078125 C -0.0351562 -6.460938 -0.863281 -8.171875 -1.40625 -10.203125 L -1.78125 -11.640625 C -2.320312 -13.703125 -2.441406 -15.609375 -2.140625 -17.359375 C -1.847656 -19.109375 -1.082031 -20.613281 0.15625 -21.875 C 1.394531 -23.144531 3.148438 -24.078125 5.421875 -24.671875 C 7.710938 -25.273438 9.703125 -25.328125 11.390625 -24.828125 C 13.078125 -24.335938 14.476562 -23.40625 15.59375 -22.03125 C 16.707031 -20.65625 17.535156 -18.9375 18.078125 -16.875 L 18.453125 -15.4375 C 18.992188 -13.40625 19.117188 -11.507812 18.828125 -9.75 C 18.535156 -7.988281 17.773438 -6.472656 16.546875 -5.203125 C 15.328125 -3.941406 13.570312 -3.007812 11.28125 -2.40625 Z M 9.84375 -7.84375 C 11.101562 -8.175781 11.90625 -8.859375 12.25 -9.890625 C 12.59375 -10.929688 12.554688 -12.222656 12.140625 -13.765625 L 11.765625 -15.203125 C 11.347656 -16.785156 10.738281 -17.9375 9.9375 -18.65625 C 9.144531 -19.375 8.117188 -19.566406 6.859375 -19.234375 C 5.628906 -18.910156 4.832031 -18.238281 4.46875 -17.21875 C 4.101562 -16.195312 4.128906 -14.894531 4.546875 -13.3125 L 4.921875 -11.875 C 5.335938 -10.332031 5.953125 -9.191406 6.765625 -8.453125 C 7.585938 -7.722656 8.613281 -7.519531 9.84375 -7.84375 Z M 9.84375 -7.84375 "/></g></g></g><g fill="#f7931a" fill-opacity="1"><g transform="translate(120.870306, 94.15322)"><g><path d="M 9.453125 -7.078125 C 10.472656 -7.347656 11.148438 -7.738281 11.484375 -8.25 C 11.816406 -8.757812 11.90625 -9.3125 11.75 -9.90625 C 11.570312 -10.570312 11.226562 -11.003906 10.71875 -11.203125 C 10.207031 -11.410156 9.3125 -11.410156 8.03125 -11.203125 C 4.96875 -10.648438 2.632812 -10.625 1.03125 -11.125 C -0.570312 -11.632812 -1.632812 -12.894531 -2.15625 -14.90625 L -2.265625 -15.265625 C -2.691406 -16.890625 -2.644531 -18.3125 -2.125 -19.53125 C -1.601562 -20.75 -0.734375 -21.773438 0.484375 -22.609375 C 1.710938 -23.453125 3.171875 -24.09375 4.859375 -24.53125 C 7.984375 -25.351562 10.421875 -25.304688 12.171875 -24.390625 C 13.929688 -23.484375 15.113281 -21.882812 15.71875 -19.59375 L 15.765625 -19.390625 L 9.546875 -17.765625 C 9.316406 -18.617188 8.925781 -19.21875 8.375 -19.5625 C 7.832031 -19.914062 7.082031 -19.96875 6.125 -19.71875 C 5.238281 -19.488281 4.613281 -19.140625 4.25 -18.671875 C 3.882812 -18.203125 3.78125 -17.675781 3.9375 -17.09375 C 4.101562 -16.457031 4.425781 -16.035156 4.90625 -15.828125 C 5.394531 -15.628906 6.269531 -15.640625 7.53125 -15.859375 C 9.34375 -16.191406 10.960938 -16.34375 12.390625 -16.3125 C 13.816406 -16.289062 15.003906 -15.96875 15.953125 -15.34375 C 16.898438 -14.726562 17.570312 -13.671875 17.96875 -12.171875 L 18.0625 -11.8125 C 18.632812 -9.625 18.320312 -7.6875 17.125 -6 C 15.925781 -4.320312 13.789062 -3.078125 10.71875 -2.265625 C 7.613281 -1.453125 5.132812 -1.503906 3.28125 -2.421875 C 1.425781 -3.347656 0.226562 -4.84375 -0.3125 -6.90625 L -0.359375 -7.09375 L 5.921875 -8.734375 C 6.097656 -8.046875 6.460938 -7.523438 7.015625 -7.171875 C 7.566406 -6.828125 8.378906 -6.796875 9.453125 -7.078125 Z M 9.453125 -7.078125 "/></g></g></g><g fill="#f7931a" fill-opacity="1"><g transform="translate(142.01332, 88.592963)"><g><path d="M 4.75 -23.953125 L 10.203125 -25.390625 L 11.65625 -19.859375 L 6.203125 -18.421875 L 8.203125 -10.765625 C 8.554688 -9.460938 9.0625 -8.6875 9.71875 -8.4375 C 10.382812 -8.195312 11.203125 -8.207031 12.171875 -8.46875 C 12.515625 -8.550781 12.882812 -8.679688 13.28125 -8.859375 C 13.675781 -9.035156 13.921875 -9.171875 14.015625 -9.265625 L 15.390625 -4.046875 C 15.222656 -3.878906 14.875 -3.664062 14.34375 -3.40625 C 13.820312 -3.144531 13.082031 -2.890625 12.125 -2.640625 C 10.519531 -2.210938 9.054688 -2.09375 7.734375 -2.28125 C 6.410156 -2.476562 5.257812 -3.0625 4.28125 -4.03125 C 3.3125 -5 2.570312 -6.460938 2.0625 -8.421875 L -0.125 -16.75 L -3.375 -15.90625 L -4.828125 -21.4375 L -1.578125 -22.28125 L -3.171875 -28.296875 L 3.15625 -29.96875 Z M 4.75 -23.953125 "/></g></g></g><g fill="#f7931a" fill-opacity="1"><g transform="translate(159.272105, 84.054193)"><g><path d="M 14.75 -3.875 L 13.765625 -5.96875 C 13.222656 -4.976562 12.46875 -4.082031 11.5 -3.28125 C 10.539062 -2.488281 9.316406 -1.894531 7.828125 -1.5 C 6.253906 -1.09375 4.910156 -1.050781 3.796875 -1.375 C 2.679688 -1.707031 1.785156 -2.304688 1.109375 -3.171875 C 0.441406 -4.046875 -0.0351562 -5.039062 -0.328125 -6.15625 L -0.4375 -6.5625 C -0.84375 -8.101562 -0.835938 -9.414062 -0.421875 -10.5 C -0.015625 -11.582031 0.695312 -12.515625 1.71875 -13.296875 C 2.75 -14.078125 3.96875 -14.769531 5.375 -15.375 L 10.0625 -17.4375 C 9.757812 -18.46875 9.335938 -19.1875 8.796875 -19.59375 C 8.265625 -20.007812 7.453125 -20.070312 6.359375 -19.78125 C 5.210938 -19.476562 4.523438 -19 4.296875 -18.34375 C 4.078125 -17.6875 4.0625 -17.007812 4.25 -16.3125 L -1.71875 -14.75 L -1.8125 -15.109375 C -2.132812 -16.335938 -2.175781 -17.566406 -1.9375 -18.796875 C -1.695312 -20.035156 -1.015625 -21.164062 0.109375 -22.1875 C 1.242188 -23.21875 2.972656 -24.035156 5.296875 -24.640625 C 7.617188 -25.253906 9.515625 -25.410156 10.984375 -25.109375 C 12.460938 -24.816406 13.628906 -24.140625 14.484375 -23.078125 C 15.335938 -22.023438 15.988281 -20.640625 16.4375 -18.921875 L 18.453125 -11.28125 L 20.4375 -5.375 Z M 8.796875 -7.25 C 9.703125 -7.488281 10.40625 -7.863281 10.90625 -8.375 C 11.414062 -8.894531 11.800781 -9.375 12.0625 -9.8125 L 11.046875 -13.703125 L 7.59375 -12.1875 C 6.644531 -11.769531 6.039062 -11.289062 5.78125 -10.75 C 5.53125 -10.21875 5.488281 -9.628906 5.65625 -8.984375 L 5.71875 -8.734375 C 5.863281 -8.203125 6.1875 -7.757812 6.6875 -7.40625 C 7.1875 -7.0625 7.890625 -7.007812 8.796875 -7.25 Z M 8.796875 -7.25 "/></g></g></g><g fill="#f7931a" fill-opacity="1"><g transform="translate(181.256026, 78.272791)"><g><path d="M 14.421875 -4.265625 L 13.765625 -6.765625 C 13.359375 -5.929688 12.753906 -5.203125 11.953125 -4.578125 C 11.160156 -3.953125 10.140625 -3.472656 8.890625 -3.140625 C 6.054688 -2.398438 3.796875 -2.769531 2.109375 -4.25 C 0.421875 -5.738281 -0.816406 -7.992188 -1.609375 -11.015625 L -1.90625 -12.125 C -2.40625 -14.019531 -2.582031 -15.785156 -2.4375 -17.421875 C -2.289062 -19.054688 -1.753906 -20.460938 -0.828125 -21.640625 C 0.0976562 -22.816406 1.5 -23.648438 3.375 -24.140625 C 4.863281 -24.535156 6.171875 -24.578125 7.296875 -24.265625 C 8.421875 -23.960938 9.390625 -23.460938 10.203125 -22.765625 L 10 -25.328125 L 15.65625 -26.8125 L 16.875 -20.703125 L 20.765625 -5.890625 C 21.535156 -2.984375 21.316406 -0.554688 20.109375 1.390625 C 18.910156 3.335938 16.644531 4.75 13.3125 5.625 C 10.957031 6.238281 8.992188 6.382812 7.421875 6.0625 C 5.859375 5.75 4.628906 5.082031 3.734375 4.0625 C 2.835938 3.050781 2.203125 1.835938 1.828125 0.421875 L 1.609375 -0.421875 L 7.578125 -1.984375 C 7.835938 -0.992188 8.28125 -0.242188 8.90625 0.265625 C 9.539062 0.785156 10.515625 0.875 11.828125 0.53125 C 13.054688 0.207031 13.890625 -0.3125 14.328125 -1.03125 C 14.765625 -1.75 14.796875 -2.828125 14.421875 -4.265625 Z M 9.296875 -9.078125 C 10.253906 -9.328125 10.96875 -9.769531 11.4375 -10.40625 C 11.914062 -11.050781 12.226562 -11.59375 12.375 -12.03125 L 10.765625 -18.125 C 10.429688 -18.445312 9.898438 -18.765625 9.171875 -19.078125 C 8.453125 -19.398438 7.613281 -19.4375 6.65625 -19.1875 C 5.507812 -18.882812 4.757812 -18.242188 4.40625 -17.265625 C 4.0625 -16.296875 4.066406 -15.140625 4.421875 -13.796875 L 4.71875 -12.6875 C 5.5 -9.6875 7.023438 -8.484375 9.296875 -9.078125 Z M 9.296875 -9.078125 "/></g></g></g><g fill="#f7931a" fill-opacity="1"><g transform="translate(204.241036, 72.22812)"><g><path d="M 14.75 -3.875 L 13.765625 -5.96875 C 13.222656 -4.976562 12.46875 -4.082031 11.5 -3.28125 C 10.539062 -2.488281 9.316406 -1.894531 7.828125 -1.5 C 6.253906 -1.09375 4.910156 -1.050781 3.796875 -1.375 C 2.679688 -1.707031 1.785156 -2.304688 1.109375 -3.171875 C 0.441406 -4.046875 -0.0351562 -5.039062 -0.328125 -6.15625 L -0.4375 -6.5625 C -0.84375 -8.101562 -0.835938 -9.414062 -0.421875 -10.5 C -0.015625 -11.582031 0.695312 -12.515625 1.71875 -13.296875 C 2.75 -14.078125 3.96875 -14.769531 5.375 -15.375 L 10.0625 -17.4375 C 9.757812 -18.46875 9.335938 -19.1875 8.796875 -19.59375 C 8.265625 -20.007812 7.453125 -20.070312 6.359375 -19.78125 C 5.210938 -19.476562 4.523438 -19 4.296875 -18.34375 C 4.078125 -17.6875 4.0625 -17.007812 4.25 -16.3125 L -1.71875 -14.75 L -1.8125 -15.109375 C -2.132812 -16.335938 -2.175781 -17.566406 -1.9375 -18.796875 C -1.695312 -20.035156 -1.015625 -21.164062 0.109375 -22.1875 C 1.242188 -23.21875 2.972656 -24.035156 5.296875 -24.640625 C 7.617188 -25.253906 9.515625 -25.410156 10.984375 -25.109375 C 12.460938 -24.816406 13.628906 -24.140625 14.484375 -23.078125 C 15.335938 -22.023438 15.988281 -20.640625 16.4375 -18.921875 L 18.453125 -11.28125 L 20.4375 -5.375 Z M 8.796875 -7.25 C 9.703125 -7.488281 10.40625 -7.863281 10.90625 -8.375 C 11.414062 -8.894531 11.800781 -9.375 12.0625 -9.8125 L 11.046875 -13.703125 L 7.59375 -12.1875 C 6.644531 -11.769531 6.039062 -11.289062 5.78125 -10.75 C 5.53125 -10.21875 5.488281 -9.628906 5.65625 -8.984375 L 5.71875 -8.734375 C 5.863281 -8.203125 6.1875 -7.757812 6.6875 -7.40625 C 7.1875 -7.0625 7.890625 -7.007812 8.796875 -7.25 Z M 8.796875 -7.25 "/></g></g></g><g fill="#f7931a" fill-opacity="1"><g transform="translate(226.224957, 66.446719)"><g><path d="M 7.828125 -25.3125 C 7.929688 -25.34375 8.035156 -25.367188 8.140625 -25.390625 C 8.242188 -25.421875 8.34375 -25.4375 8.4375 -25.4375 L 10.03125 -19.34375 L 8.953125 -19.0625 C 7.671875 -18.71875 6.71875 -18.242188 6.09375 -17.640625 C 5.46875 -17.035156 5.0625 -16.492188 4.875 -16.015625 L 8.5 -2.234375 L 2.15625 -0.5625 L -1.84375 -15.78125 L -3.78125 -21.703125 L 1.875 -23.1875 L 2.953125 -20.828125 C 3.335938 -21.859375 3.9375 -22.78125 4.75 -23.59375 C 5.570312 -24.414062 6.597656 -24.988281 7.828125 -25.3125 Z M 7.828125 -25.3125 "/></g></g></g><g fill="#f7931a" fill-opacity="1"><g transform="translate(241.64173, 62.392368)"><g><path d="M 32.65625 -8.59375 L 26.359375 -6.9375 L 22.78125 -20.546875 C 22.550781 -21.410156 22.175781 -22.019531 21.65625 -22.375 C 21.132812 -22.738281 20.429688 -22.804688 19.546875 -22.578125 C 18.640625 -22.335938 17.984375 -21.9375 17.578125 -21.375 C 17.179688 -20.8125 16.90625 -20.3125 16.75 -19.875 L 20.546875 -5.40625 L 14.265625 -3.75 L 10.6875 -17.359375 C 10.457031 -18.222656 10.082031 -18.835938 9.5625 -19.203125 C 9.039062 -19.566406 8.335938 -19.632812 7.453125 -19.40625 C 6.566406 -19.164062 5.921875 -18.757812 5.515625 -18.1875 C 5.109375 -17.625 4.835938 -17.128906 4.703125 -16.703125 L 8.5 -2.234375 L 2.15625 -0.5625 L -1.84375 -15.78125 L -3.78125 -21.703125 L 1.875 -23.1875 L 2.984375 -20.734375 C 3.390625 -21.816406 4.035156 -22.78125 4.921875 -23.625 C 5.816406 -24.476562 7.023438 -25.101562 8.546875 -25.5 C 9.953125 -25.875 11.191406 -25.882812 12.265625 -25.53125 C 13.347656 -25.1875 14.25 -24.570312 14.96875 -23.6875 C 15.375 -24.789062 16.023438 -25.796875 16.921875 -26.703125 C 17.828125 -27.609375 19.066406 -28.269531 20.640625 -28.6875 C 22.109375 -29.070312 23.382812 -29.070312 24.46875 -28.6875 C 25.5625 -28.300781 26.46875 -27.625 27.1875 -26.65625 C 27.914062 -25.695312 28.457031 -24.550781 28.8125 -23.21875 Z M 32.65625 -8.59375 "/></g></g></g></svg>